<svg xmlns="http://www.w3.org/2000/svg" viewBox="0 0 261.04 180.91">
    <defs>
        <style>
            .cls-1,.cls-3{fill:#20123a;}.cls-1{fill-rule:evenodd;}.cls-2{fill:#fff;}.cls-3{stroke:#20123a;stroke-miterlimit:10;stroke-width:1.22px;}
        </style>
    </defs>
    <g id="Calque_2" data-name="Calque 2">
        <g id="Calque_1-2" data-name="Calque 1">
            <polygon id="Path" class="cls-1"
                     points="151.35 54.3 126.22 54.3 126.22 47.41 168.02 47.41 168.02 8.48 159.56 8.48 159.56 0 91.55 0 91.55 8.48 83.35 8.48 83.35 62.77 74.88 62.77 74.88 70.99 62.45 70.99 62.45 79.46 50.01 79.46 50.01 87.94 41.54 87.94 41.54 96.15 26.2 96.15 26.2 87.67 17.99 87.67 17.99 79.46 9.53 79.46 9.53 62.77 0 62.77 0 114.16 8.2 114.16 8.2 122.64 16.67 122.64 16.67 130.85 24.87 130.85 24.87 139.32 33.34 139.32 33.34 147.53 41.54 147.53 41.54 180.91 59.54 180.91 59.54 171.37 51.33 171.37 51.33 164.22 59.54 164.22 59.54 156.01 68 156.01 68 147.53 74.88 147.53 74.88 156.01 83.35 156.01 83.35 180.91 101.34 180.91 101.34 171.37 92.88 171.37 92.88 139.32 101.34 139.32 101.34 130.85 109.55 130.85 109.55 118.4 118.01 118.4 118.01 89.26 124.89 89.26 124.89 97.47 134.68 97.47 134.68 79.46 118.01 79.46 118.01 64.1 151.35 64.1 151.35 54.3"/>
            <rect id="Rectangle" class="cls-2" x="99.76" y="12.18" width="10.05" height="10.07"/>
            <path class="cls-3"
                  d="M197.11,91.82v9.74h-4.87V91.82H177.62V82.08h4.88V87h9.74V77.21h-4.87V72.34h4.87V67.47h4.87V87H202v4.87Zm-9.74-9.74H182.5V77.21h4.87Z"/>
            <path class="cls-3"
                  d="M211.72,96.69h-4.87V72.34h4.87Zm14.62-24.35H211.72V67.47h14.62Zm0,29.22H211.72V96.69h14.62ZM221.46,87h-4.87V82.08h4.87Zm9.75,9.74h-4.87V72.34h4.87Z"/>
            <path class="cls-3"
                  d="M255.56,91.82v9.74h-4.87V91.82H236.08V82.08H241V87h9.74V77.21h-4.87V72.34h4.87V67.47h4.87V87h4.87v4.87Zm-9.74-9.74H241V77.21h4.87Z"/>
        </g>
    </g>
</svg>