<?xml version="1.0" encoding="utf-8"?>
<!-- Generator: Adobe Illustrator 25.4.1, SVG Export Plug-In . SVG Version: 6.00 Build 0)  -->
<svg version="1.1" id="Calque_1" xmlns="http://www.w3.org/2000/svg" x="0px" y="0px"
	 viewBox="0 0 20 18" style="enable-background:new 0 0 20 18;" xml:space="preserve">
<style type="text/css">
	.st0{fill:#FFFFFF;}
	.st1{fill:#2AB14C;}
</style>
	<path class="st0" d="M11.6,0.7c-0.8-0.9-2.2-0.9-3.1,0c0,0,0,0,0,0L0.6,8.6c-0.9,0.9-0.9,2.3,0,3.2l5.6,5.7C6.6,17.8,7.1,18,7.7,18
	h4.7c0.6,0,1.2-0.2,1.6-0.7l5.5-5.6c0.9-0.9,0.9-2.3,0-3.2L11.6,0.7L11.6,0.7z"/>
	<path class="st1" d="M11.6,0.7c-0.8-0.9-2.2-0.9-3.1,0c0,0,0,0,0,0L0.6,8.6c-0.9,0.9-0.9,2.3,0,3.2l5.6,5.7C6.6,17.8,7.1,18,7.7,18
	h4.7c0.6,0,1.2-0.2,1.6-0.7l5.5-5.6c0.9-0.9,0.9-2.3,0-3.2L11.6,0.7L11.6,0.7z M11.3,15.2L10.6,16c-0.1,0.1-0.1,0.1-0.2,0.1H9.7
	c-0.1,0-0.1,0-0.2-0.1l-0.8-0.8c-0.1-0.1-0.1-0.3,0-0.5l1.1-1.1c0.1-0.1,0.3-0.1,0.4,0c0,0,0,0,0,0l1.1,1.1
	C11.5,14.8,11.5,15,11.3,15.2z M11.3,10.4l-3.1,3.2c-0.1,0.1-0.1,0.1-0.2,0.1H7.3c-0.1,0-0.2,0-0.2-0.1l-0.8-0.8
	c-0.1-0.1-0.1-0.3,0-0.5l3.4-3.5c0.1-0.1,0.3-0.1,0.4,0c0,0,0,0,0,0l1.1,1.1C11.5,10.1,11.5,10.3,11.3,10.4L11.3,10.4z M11.3,5.7
	l-5.4,5.5c-0.1,0.1-0.1,0.1-0.2,0.1H5c-0.1,0-0.1,0-0.2-0.1L4,10.4c-0.1-0.1-0.1-0.3,0-0.4l5.8-5.9c0.1-0.1,0.3-0.1,0.4,0
	c0,0,0,0,0,0l1.1,1.1C11.5,5.3,11.5,5.5,11.3,5.7z"/>
</svg>
