<?xml version="1.0" encoding="utf-8"?>
<!-- Generator: Adobe Illustrator 25.4.1, SVG Export Plug-In . SVG Version: 6.00 Build 0)  -->
<svg version="1.1" id="Calque_1" xmlns="http://www.w3.org/2000/svg" x="0px" y="0px"
	 viewBox="0 0 24 24" style="enable-background:new 0 0 24 24;" xml:space="preserve">
<style type="text/css">
	.st0{fill:#FFFFFF;}
	.st1{fill:#FFE01B;}
</style>
	<path class="st0" d="M11.3,0C6.8,0-1.8,10.2,1.4,13l0.8,0.7C2,14.2,1.9,14.8,2,15.4c0.1,0.8,0.5,1.6,1.2,2.3c0.7,0.6,1.5,1,2.4,1
	C7,21.9,10.2,23.9,14,24c4,0.1,7.4-1.8,8.9-5.2c0.1-0.2,0.5-1.3,0.5-2.3c0-1-0.5-1.4-0.9-1.4c0,0-0.1-0.3-0.2-0.6
	c-0.1-0.3-0.2-0.5-0.2-0.5c0.4-0.6,0.4-1.1,0.3-1.4c-0.1-0.4-0.2-0.7-0.5-1s-0.9-0.6-1.8-0.9l-0.4-0.1c0,0,0-1.1,0-1.5
	c0-0.3,0-0.8-0.2-1.3c-0.2-0.7-0.5-1.3-0.9-1.6c1.1-1.2,1.8-2.4,1.8-3.5c0-2.1-2.6-2.7-5.7-1.4l-0.7,0.3c-0.4-0.4-0.8-0.8-1.2-1.2
	C12.3,0.2,11.8,0,11.3,0z"/>
	<path class="st1" d="M11.3,0C6.8,0-1.8,10.2,1.4,13l0.8,0.7C2,14.2,1.9,14.8,2,15.4c0.1,0.8,0.5,1.6,1.2,2.3c0.7,0.6,1.5,1,2.4,1
	C7,21.9,10.2,23.9,14,24c4,0.1,7.4-1.8,8.9-5.2c0.1-0.2,0.5-1.3,0.5-2.3c0-1-0.5-1.4-0.9-1.4c0,0-0.1-0.3-0.2-0.6
	c-0.1-0.3-0.2-0.5-0.2-0.5c0.4-0.6,0.4-1.1,0.3-1.4c-0.1-0.4-0.2-0.7-0.5-1s-0.9-0.6-1.8-0.9l-0.4-0.1c0,0,0-1.1,0-1.5
	c0-0.3,0-0.8-0.2-1.3c-0.2-0.7-0.5-1.3-0.9-1.6c1.1-1.2,1.8-2.4,1.8-3.5c0-2.1-2.6-2.7-5.7-1.4l-0.7,0.3c-0.4-0.4-0.8-0.8-1.2-1.2
	C12.3,0.2,11.8,0,11.3,0z M11.3,0.9c0.2,0,0.3,0,0.5,0.1c0.3,0.1,1.3,1.2,1.3,1.2s-1.8,1-3.5,2.4c-2.3,1.8-4,4.3-5,7.1
	c-0.8,0.2-1.5,0.6-2,1.3c-0.3-0.2-0.7-0.6-0.8-0.8C1,10.8,2.5,8.2,3.5,6.8C5.8,3.4,9.4,0.9,11.3,0.9z M14.6,4.1
	C14.7,4.1,14.7,4.2,14.6,4.1c-0.1,0.2-0.3,0.3-0.4,0.5c0,0,0,0,0,0.1c0,0,0,0,0,0c0.7,0,1.6,0.2,2.2,0.6c0,0,0,0.1,0,0.1
	c-0.9-0.2-2.4-0.4-4,0C11.1,5.7,10,6.2,9.2,6.8c0,0-0.1,0-0.1-0.1c0.9-1,2-1.9,3-2.4c0,0,0.1,0,0.1,0.1C12.1,4.5,12,4.8,11.9,5
	c0,0,0,0.1,0.1,0C12.6,4.7,13.7,4.2,14.6,4.1z M17.6,7.4L17.6,7.4c0.2,0,0.4,0.1,0.5,0.1c0.5,0.4,0.6,1.2,0.6,1.8
	c0,0.4,0.1,1.2,0.1,1.5c0,0.6,0.2,0.7,0.5,0.8c0.2,0.1,0.3,0.1,0.6,0.2c0.7,0.2,1.1,0.4,1.4,0.7c0.2,0.2,0.2,0.3,0.3,0.5
	c0.1,0.6-0.5,1.4-1.9,2c-1.6,0.7-3.6,0.9-4.9,0.8l-0.5-0.1c-1.1-0.1-1.7,1.2-1,2.2c0.4,0.6,1.6,1,2.7,1c2.6,0,4.6-1.1,5.4-2.1
	c0,0,0-0.1,0.1-0.1c0-0.1,0-0.1,0-0.1c-0.6,0.4-3.3,2.1-6.2,1.6c0,0-0.4-0.1-0.7-0.2c-0.3-0.1-0.8-0.3-0.9-0.9c2.3,0.7,3.8,0,3.8,0
	c0,0,0,0,0-0.1c0,0,0-0.1-0.1-0.1c0,0,0,0,0,0c0,0-1.9,0.3-3.7-0.4c0.2-0.6,0.7-0.4,1.5-0.3c1.2,0.1,2.5-0.1,3.6-0.4
	c0.8-0.2,1.9-0.7,2.7-1.4c0.3,0.6,0.4,1.3,0.4,1.3s0.2,0,0.4,0.1c0.2,0.1,0.3,0.3,0.2,0.9c-0.2,1.1-0.6,1.9-1.4,2.7
	c-0.5,0.5-1,0.9-1.7,1.2c-0.3,0.2-0.7,0.3-1.1,0.5c-2.9,0.9-5.8-0.1-6.7-2.3c-0.1-0.2-0.1-0.3-0.2-0.5c-0.4-1.5-0.1-3.2,1-4.3
	c0.1-0.1,0.1-0.2,0.1-0.3c0-0.1-0.1-0.2-0.1-0.2c-0.4-0.5-1.7-1.5-1.4-3.3c0.2-1.3,1.3-2.2,2.4-2.1c0.1,0,0.2,0,0.3,0
	c0.5,0,0.9,0.1,1.2,0.1c0.6,0,1.2-0.1,1.9-0.6c0.2-0.2,0.4-0.3,0.7-0.4C17.5,7.4,17.5,7.4,17.6,7.4z M17.7,9.5
	C17.7,9.5,17.6,9.5,17.7,9.5c-0.4,0.1-0.4,0.5-0.3,1c0.1,0.3,0.2,0.6,0.3,0.8c0.2,0,0.3,0,0.5,0c0.1-0.2,0.1-0.6,0-0.9
	C18.1,9.9,18,9.5,17.7,9.5z M14,11.1c-0.4,0-0.7,0.1-1,0.3c-0.2,0.1-0.3,0.3-0.3,0.4c0,0,0,0.1,0.1,0.1c0.1,0,0.6-0.2,1.1-0.2
	c0.4,0,0.7,0.1,0.9,0.2c0.2,0.1,0.4,0.2,0.4,0.1c0,0,0-0.1,0-0.2c-0.1-0.2-0.4-0.4-0.6-0.5C14.4,11.1,14.2,11.1,14,11.1z M18.1,11.9
	c-0.2,0-0.3,0.2-0.3,0.4c0,0.2,0.1,0.4,0.3,0.4c0.2,0,0.3-0.2,0.3-0.4C18.4,12.1,18.3,11.9,18.1,11.9z M14.5,12.1
	c-0.1,0-0.1,0-0.2,0c-0.3,0.1-0.5,0.2-0.6,0.2c-0.1,0.1-0.2,0.2-0.2,0.2c0,0,0,0.1,0.1,0.1c0,0,0,0,0,0c0.1,0,0.2-0.1,0.2-0.1
	c0.3-0.1,0.7-0.2,1-0.1c0.2,0,0.2,0,0.3,0c0,0,0,0,0-0.1C15.1,12.2,14.9,12.1,14.5,12.1L14.5,12.1z M16.8,12.5
	c-0.1,0-0.2,0.1-0.3,0.1c-0.1,0.2,0,0.4,0.2,0.5c0.2,0.1,0.4,0.1,0.5-0.1c0.1-0.2,0-0.4-0.2-0.5C16.9,12.5,16.9,12.5,16.8,12.5
	L16.8,12.5z M5.1,12.5c0,0,0.1,0,0.1,0c0.7,0,1.8,0.6,2.1,2.2c0.2,1.4-0.1,2.8-1.4,3.1c-0.1,0-0.2,0-0.4,0c-1.2,0-2.5-1.1-2.7-2.4
	c-0.1-1.4,0.6-2.5,1.9-2.8C4.9,12.5,5,12.5,5.1,12.5z M5.1,13.4c-0.3,0-0.6,0.1-0.8,0.4c-0.4,0.4-0.4,1-0.4,1.2
	c0,0.1,0.1,0.1,0.1,0.1c0.1,0,0.2,0,0.2-0.2c0,0,0,0,0-0.1c0-0.1,0.1-0.3,0.2-0.4c0.2-0.3,0.6-0.4,1-0.2c0,0,0,0,0,0
	c0.3,0.2,0.4,0.5,0.3,0.8c-0.1,0.2-0.2,0.5-0.1,0.7c0,0.5,0.4,0.7,0.6,0.7c0.3,0,0.5-0.1,0.5-0.3c0-0.1,0-0.1,0-0.1
	c0-0.1-0.1,0-0.2,0c-0.1,0-0.1,0-0.2,0c-0.1,0-0.2-0.1-0.3-0.1c-0.1-0.1-0.1-0.3,0-0.5c0,0,0-0.1,0-0.1c0.1-0.3,0.4-0.8,0.1-1.3
	c-0.2-0.4-0.5-0.6-0.9-0.6C5.2,13.4,5.1,13.4,5.1,13.4L5.1,13.4z"/>
</svg>
